<?xml version="1.0" encoding="UTF-8" standalone="no"?>
<svg
   xmlns:dc="http://purl.org/dc/elements/1.1/"
   xmlns:cc="http://creativecommons.org/ns#"
   xmlns:rdf="http://www.w3.org/1999/02/22-rdf-syntax-ns#"
   xmlns:svg="http://www.w3.org/2000/svg"
   xmlns="http://www.w3.org/2000/svg"
   xmlns:sodipodi="http://sodipodi.sourceforge.net/DTD/sodipodi-0.dtd"
   xmlns:inkscape="http://www.inkscape.org/namespaces/inkscape"
   width="100%"
   height="100%"
   viewBox="0 0 1770 1770"
   version="1.1"
   xml:space="preserve"
   style="fill-rule:evenodd;clip-rule:evenodd;stroke-linejoin:round;stroke-miterlimit:2;"
   id="svg3741"
   sodipodi:docname="icon-inverse-white.svg"
   inkscape:version="0.92.4 (5da689c313, 2019-01-14)"><metadata
   id="metadata3747"><rdf:RDF><cc:Work
       rdf:about=""><dc:format>image/svg+xml</dc:format><dc:type
         rdf:resource="http://purl.org/dc/dcmitype/StillImage" /></cc:Work></rdf:RDF></metadata><defs
   id="defs3745" /><sodipodi:namedview
   pagecolor="#ffffff"
   bordercolor="#666666"
   borderopacity="1"
   objecttolerance="10"
   gridtolerance="10"
   guidetolerance="10"
   inkscape:pageopacity="0"
   inkscape:pageshadow="2"
   inkscape:window-width="2560"
   inkscape:window-height="1377"
   id="namedview3743"
   showgrid="false"
   inkscape:zoom="0.68248588"
   inkscape:cx="885"
   inkscape:cy="852.51017"
   inkscape:window-x="-8"
   inkscape:window-y="-8"
   inkscape:window-maximized="1"
   inkscape:current-layer="svg3741" />
    <g
   id="Background"
   style="fill:#000000">
    </g>
    
<g
   id="White"
   style="display:inline">
        <g
   id="Waves">
            <path
   d="m 1514.3,901.837 c 0.14,30.339 -0.63,60.752 -4.62,90.828 -3.57,26.955 -9.71,53.505 -16.66,79.795 -10.38,39.26 -22.6,78.02 -36.6,116.14 43.9,-52.11 73.16,-115.02 95.88,-179.26 11.01,-31.156 20.65,-62.956 25.41,-95.654 3.63,-24.941 4.4,-50.204 4.9,-75.404 1.03,-51.974 0.88,-104.382 -9.34,-155.351 -27.86,-138.823 -135.46,-258.69 -270.49,-301.306 -3.3,-1.044 -7.74,-1.654 -9.5,1.334 83.09,52.279 142.32,137.2 176.28,229.31 33.96,92.11 44.28,191.399 44.74,289.568 z"
   style="fill:#ffffff"
   id="path3732"
   inkscape:connector-curvature="0" />
            <path
   d="m 1219.51,487.551 c 63.68,41.595 109.97,106.524 137.82,177.309 27.84,70.786 38.25,147.384 40.41,223.418 0.63,22.382 0.57,44.815 -1.33,67.125 -5.18,60.617 -23.86,119.307 -46.13,175.927 4.98,1.55 9.47,-3.3 12.39,-7.62 41,-60.58 69.67,-129.464 83.75,-201.242 17.42,-88.798 11.88,-183.719 -26.6,-265.622 -38.48,-81.903 -112.12,-149.052 -200.31,-169.295 z"
   style="fill:#ffffff"
   id="path3734"
   inkscape:connector-curvature="0" />
            <path
   d="m 1255.53,1099.74 c 38.2,-57.22 67.28,-121.312 78.62,-189.172 11.34,-67.861 4.22,-139.667 -26.23,-201.363 -30.45,-61.697 -85.26,-112.284 -151.24,-131.775 -3.17,-0.936 -8.39,0.25 -7.14,3.306 63.9,38.913 102.47,109.623 122.38,181.741 28.46,103.073 23.93,214.987 -12.77,315.423 -2.57,7.04 -5.34,14.55 -3.62,21.84 z"
   style="fill:#ffffff"
   id="path3736"
   inkscape:connector-curvature="0" />
        </g>
        <path
   style="fill:#ffffff"
   d="M 859.237,560.992 C 731.74064,678.85961 578.03628,765.72638 414.82438,823.6133 c -59.40271,21.65129 -120.1848,69.51599 -116.47696,139.22733 0.48399,56.23527 3.83994,118.28077 40.97858,163.80937 -59.44405,-68.2857 -68.25961,-175.42962 -20.783,-252.516 -73.9117,15.10164 -149.89019,78.16384 -138.73832,160.4294 4.39335,60.5504 66.58049,92.4113 121.26674,93.6041 61.99092,6.2702 142.3914,-1.4529 179.44911,60.4208 34.02416,68.6357 39.70035,147.9015 71.87513,217.2378 26.81904,44.0317 86.15299,49.0838 132.43736,44.5434 27.74981,-18.2295 -17.26543,-47.4933 3.88098,-76.1195 -19.59501,-68.684 -63.02973,-130.5324 -79.176,-201.6286 -31.64934,-56.5929 26.69956,-81.4059 73.58768,-65.2141 143.04912,7.9426 291.09601,26.4211 416.16182,101.729 46.5222,23.8141 84.9803,-27.1702 92.8064,-68.1852 44.2114,-179.14967 8.0906,-367.58077 -50.9878,-538.87526 -26.6906,-64.02285 -53.0252,-135.01983 -110.1761,-178.09884 -46.55513,-34.18316 -103.23946,4.10039 -112.86679,54.52068 -10.8756,32.92254 -32.70515,60.2019 -58.82621,82.49432 z m -302.376,275.55 c -24.33131,51.88293 -17.22012,116.14481 6.66747,167.1478 21.65829,45.4147 71.95034,69.3796 121.01353,65.4102 111.87155,3.7203 224.9243,19.2099 329.208,61.58 C 928.69595,960.96956 876.66714,768.98747 897.456,578.21 806.85836,687.54082 662.58461,729.29277 563.05881,827.83439 Z m -299.229,98.033 c 0.56181,52.95961 3.0446,106.9529 23.34664,156.4456 -35.76015,-16.387 -34.44451,-91.45728 -31.59345,-132.31577 1.54029,-8.27591 1.26319,-18.00171 8.24681,-24.12983 z M 235.88,1073.65 c -2.64281,28.585 -33.33199,-54.7938 -27.21611,-77.86678 -7.44883,-25.62817 21.4751,-61.99638 12.91199,-15.37848 -0.8738,31.60306 3.97049,63.36326 14.30412,93.24526 z m 768.44,-22.8 C 962.64597,940.30003 941.94349,822.58366 930.01213,705.56713 c 47.18946,22.14544 68.70875,87.59911 83.36477,137.46169 17.2567,69.66898 14.4003,143.62078 -4.5569,212.63118 l -2.8088,-1.6287 z"
   id="Megaphone"
   inkscape:connector-curvature="0" />
    </g></svg>